{"accessors":[{"bufferView":2,"componentType":5126,"count":1152,"max":[2.3069589138031006,1.0942903757095337,1.1011641025543213],"min":[-2.4033751487731934,-10.21003532409668,-1.0845717191696167],"type":"VEC3"},{"bufferView":2,"byteOffset":13824,"componentType":5126,"count":1152,"max":[1,1,0.9996813535690308],"min":[-1,-1,-0.9996813535690308],"type":"VEC3"},{"bufferView":1,"componentType":5126,"count":1152,"max":[1,1],"min":[0,0],"type":"VEC2"},{"bufferView":0,"componentType":5125,"count":1548,"max":[1151],"min":[0],"type":"SCALAR"}],"asset":{"extras":{"author":"e.shifflett (https://sketchfab.com/e.shifflett)","license":"CC-BY-4.0 (http://creativecommons.org/licenses/by/4.0/)","source":"https://sketchfab.com/3d-models/3d-sketchbook-5-drawing-figure-9c7056bd770547afafa9d41bcd60f9d6","title":"3D Sketchbook 5- Drawing Figure"},"generator":"Sketchfab-10.23.0","version":"2.0"},"bufferViews":[{"buffer":0,"byteLength":6192,"byteOffset":0,"name":"floatBufferViews","target":34963},{"buffer":0,"byteLength":9216,"byteOffset":6192,"byteStride":8,"name":"floatBufferViews","target":34962},{"buffer":0,"byteLength":27648,"byteOffset":15408,"byteStride":12,"name":"floatBufferViews","target":34962}],"buffers":[{"byteLength":43056,"uri":"data:application/octet-stream;base64,"}],"materials":[{"doubleSided":true,"emissiveFactor":[0,0,0],"name":"Material.001","pbrMetallicRoughness":{"baseColorFactor":[0.479702,0.340823,0.128,1],"metallicFactor":0,"roughnessFactor":1}}],"meshes":[{"primitives":[{"attributes":{"NORMAL":1,"POSITION":0,"TEXCOORD_0":2},"indices":3,"material":0,"mode":4}]}],"nodes":[{"children":[1],"name":"RootNode (gltf orientation matrix)","rotation":[-0.7071067811865475,0,0,0.7071067811865476]},{"children":[2],"name":"RootNode (model correction matrix)"},{"children":[3],"name":"root"},{"children":[4],"matrix":[1,0,0,0,0,2.220446049250313e-16,1,0,0,-1,2.220446049250313e-16,0,0,0,0,1],"name":"GLTF_SceneRootNode"},{"children":[5],"matrix":[-0.5809965133666682,0,1.893126998143278e-7,0,0,0.7902182936668396,0,0,-2.2956055356784545e-7,0,-0.7045162916183096,0,-0.00816565752029419,8.059250831604004,-0.04899241030216217,1],"name":"Cube.001_2"},{"mesh":0,"name":""}],"scene":0,"scenes":[{"name":"OSG_Scene","nodes":[0]}]}